<svg aria-hidden="true" style="position: absolute; width: 0; height: 0; overflow: hidden;" version="1.1" xmlns="http://www.w3.org/2000/svg" xmlns:xlink="http://www.w3.org/1999/xlink">
<defs>
<symbol id="icon-facebook" viewBox="0 0 32 32">
<path d="M18.133 17.6h2.667l1.067-4.267h-3.733v-2.133c0-1.099 0-2.133 2.133-2.133h1.6v-3.584c-0.348-0.046-1.661-0.149-3.047-0.149-2.896 0-4.953 1.767-4.953 5.013v2.987h-3.2v4.267h3.2v9.067h4.267v-9.067z"></path>
</symbol>
<symbol id="icon-heart" viewBox="0 0 32 32">
<path d="M28.844 8.863c-0.419-0.97-1.023-1.848-1.778-2.588-0.756-0.741-1.647-1.33-2.625-1.734-1.014-0.421-2.102-0.637-3.2-0.634-1.541 0-3.044 0.422-4.35 1.219-0.312 0.191-0.609 0.4-0.891 0.628-0.281-0.228-0.578-0.438-0.891-0.628-1.306-0.797-2.809-1.219-4.35-1.219-1.109 0-2.184 0.213-3.2 0.634-0.981 0.406-1.866 0.991-2.625 1.734-0.756 0.738-1.36 1.617-1.778 2.588-0.434 1.009-0.656 2.081-0.656 3.184 0 1.041 0.212 2.125 0.634 3.228 0.353 0.922 0.859 1.878 1.506 2.844 1.025 1.528 2.434 3.122 4.184 4.738 2.9 2.678 5.772 4.528 5.894 4.603l0.741 0.475c0.328 0.209 0.75 0.209 1.078 0l0.741-0.475c0.122-0.078 2.991-1.925 5.894-4.603 1.75-1.616 3.159-3.209 4.184-4.738 0.647-0.966 1.156-1.922 1.506-2.844 0.422-1.103 0.634-2.188 0.634-3.228 0.003-1.103-0.219-2.175-0.653-3.184zM16 25.463c0 0-11.125-7.128-11.125-13.416 0-3.184 2.634-5.766 5.884-5.766 2.284 0 4.266 1.275 5.241 3.137 0.975-1.862 2.956-3.138 5.241-3.138 3.25 0 5.884 2.581 5.884 5.766 0 6.288-11.125 13.416-11.125 13.416z"></path>
<path d="M21.241 6.281c-2.284 0-4.266 1.275-5.241 3.137-0.975-1.862-2.956-3.138-5.241-3.138-3.25 0-5.884 2.581-5.884 5.766 0 6.288 11.125 13.416 11.125 13.416s11.125-7.128 11.125-13.416c0-3.184-2.634-5.766-5.884-5.766z"></path>
</symbol>
<symbol id="icon-ic_round-menu" viewBox="0 0 32 32">
<path d="M5.333 24h21.333c0.733 0 1.333-0.6 1.333-1.334s-0.6-1.333-1.333-1.333h-21.333c-0.733 0-1.333 0.6-1.333 1.333s0.6 1.334 1.333 1.334zM5.333 17.334h21.333c0.733 0 1.333-0.6 1.333-1.334s-0.6-1.334-1.333-1.334h-21.333c-0.733 0-1.333 0.6-1.333 1.334s0.6 1.334 1.333 1.334zM4 9.334c0 0.733 0.6 1.333 1.333 1.333h21.333c0.733 0 1.333-0.6 1.333-1.333s-0.6-1.334-1.333-1.334h-21.333c-0.733 0-1.333 0.6-1.333 1.334z"></path>
<path d="M4 9.334c0 0.733 0.6 1.333 1.333 1.333h21.333c0.733 0 1.333-0.6 1.333-1.333s-0.6-1.334-1.333-1.334h-21.333c-0.733 0-1.333 0.6-1.333 1.334zM26.667 10.467h-21.333q-0.121 0-0.237-0.025-0.104-0.023-0.203-0.065-0.091-0.039-0.172-0.091-0.101-0.065-0.188-0.152t-0.153-0.188q-0.053-0.082-0.091-0.172-0.042-0.1-0.064-0.203-0.025-0.116-0.025-0.236t0.025-0.237q0.022-0.104 0.064-0.203 0.038-0.091 0.091-0.172 0.065-0.102 0.153-0.188t0.188-0.153q0.082-0.053 0.172-0.091 0.099-0.042 0.203-0.064 0.116-0.024 0.237-0.024h21.333q0.121 0 0.237 0.024 0.104 0.022 0.203 0.064 0.091 0.039 0.172 0.091 0.101 0.065 0.189 0.153t0.153 0.188q0.053 0.082 0.091 0.172 0.042 0.099 0.064 0.203 0.025 0.116 0.025 0.237t-0.025 0.236q-0.022 0.104-0.064 0.203-0.039 0.091-0.091 0.172-0.065 0.101-0.153 0.188t-0.189 0.152q-0.081 0.053-0.172 0.091-0.099 0.042-0.203 0.065-0.116 0.025-0.237 0.025zM5.333 17.334h21.333c0.733 0 1.333-0.6 1.333-1.334s-0.6-1.334-1.333-1.334h-21.333c-0.733 0-1.333 0.6-1.333 1.334s0.6 1.334 1.333 1.334zM26.903 17.108q-0.116 0.025-0.237 0.025h-21.333q-0.121 0-0.237-0.025-0.104-0.022-0.203-0.064-0.091-0.038-0.172-0.091-0.101-0.065-0.188-0.152t-0.153-0.189q-0.053-0.081-0.091-0.172-0.042-0.099-0.064-0.203-0.025-0.116-0.025-0.237t0.025-0.236q0.022-0.104 0.064-0.203 0.038-0.091 0.091-0.172 0.065-0.101 0.153-0.188t0.188-0.152q0.082-0.053 0.172-0.091 0.099-0.043 0.203-0.065 0.116-0.025 0.237-0.025h21.333q0.121 0 0.237 0.025 0.104 0.022 0.203 0.065 0.091 0.039 0.172 0.091 0.101 0.065 0.189 0.152t0.153 0.188q0.053 0.082 0.091 0.172 0.042 0.099 0.064 0.203 0.025 0.116 0.025 0.237t-0.025 0.237q-0.022 0.104-0.064 0.203-0.039 0.091-0.091 0.172-0.065 0.101-0.152 0.189t-0.188 0.152q-0.082 0.053-0.172 0.091-0.099 0.043-0.203 0.064zM5.333 24h21.333c0.733 0 1.333-0.6 1.333-1.334s-0.6-1.333-1.333-1.333h-21.333c-0.733 0-1.333 0.6-1.333 1.333s0.6 1.334 1.333 1.334zM26.903 23.775q-0.116 0.024-0.237 0.024h-21.333q-0.121 0-0.237-0.024-0.104-0.023-0.203-0.064-0.091-0.038-0.172-0.091-0.101-0.065-0.188-0.153t-0.153-0.189q-0.053-0.081-0.091-0.172-0.042-0.099-0.064-0.203-0.025-0.116-0.025-0.237t0.025-0.236q0.022-0.104 0.064-0.203 0.038-0.090 0.091-0.172 0.065-0.102 0.153-0.189t0.188-0.152q0.082-0.053 0.172-0.091 0.099-0.042 0.203-0.064 0.116-0.025 0.237-0.025h21.333q0.121 0 0.237 0.025 0.104 0.023 0.203 0.064 0.091 0.038 0.172 0.091 0.101 0.065 0.189 0.152t0.153 0.189q0.053 0.081 0.091 0.172 0.042 0.1 0.064 0.203 0.025 0.116 0.025 0.236t-0.025 0.237q-0.022 0.104-0.064 0.203-0.039 0.091-0.091 0.173-0.065 0.101-0.152 0.188t-0.188 0.153q-0.082 0.053-0.172 0.091-0.099 0.042-0.203 0.064z"></path>
</symbol>
<symbol id="icon-instagram" viewBox="0 0 32 32">
<path d="M16.362 5.335c0.73-0.003 1.459 0.004 2.189 0.022l0.194 0.007c0.224 0.008 0.445 0.018 0.712 0.030 1.064 0.050 1.79 0.218 2.427 0.465 0.66 0.254 1.216 0.598 1.772 1.154 0.508 0.5 0.902 1.104 1.153 1.771 0.247 0.637 0.415 1.364 0.465 2.428 0.012 0.266 0.022 0.488 0.030 0.712l0.006 0.194c0.018 0.729 0.025 1.459 0.023 2.188l0.001 0.746v1.31c0.002 0.73-0.005 1.459-0.023 2.189l-0.006 0.194c-0.008 0.224-0.018 0.445-0.030 0.712-0.050 1.064-0.22 1.79-0.466 2.427-0.25 0.668-0.644 1.273-1.153 1.772-0.5 0.508-1.105 0.902-1.772 1.153-0.637 0.247-1.363 0.415-2.427 0.465-0.267 0.012-0.488 0.022-0.712 0.030l-0.194 0.006c-0.729 0.018-1.459 0.025-2.189 0.023l-2.055 0.001c-0.73 0.003-1.459-0.005-2.189-0.023l-0.194-0.006c-0.237-0.009-0.475-0.019-0.712-0.030-1.064-0.050-1.79-0.22-2.428-0.466-0.667-0.251-1.272-0.644-1.771-1.153-0.509-0.5-0.903-1.105-1.154-1.772-0.247-0.637-0.415-1.363-0.465-2.427-0.011-0.237-0.021-0.475-0.030-0.712l-0.005-0.194c-0.018-0.73-0.027-1.459-0.025-2.189v-2.056c-0.003-0.729 0.004-1.459 0.022-2.188l0.007-0.194c0.008-0.224 0.018-0.446 0.030-0.712 0.050-1.065 0.218-1.79 0.465-2.428 0.251-0.667 0.646-1.271 1.156-1.77 0.499-0.509 1.103-0.903 1.77-1.155 0.638-0.247 1.363-0.415 2.428-0.465l0.712-0.030 0.194-0.005c0.729-0.018 1.459-0.027 2.188-0.025l2.056 0.001zM15.334 10.335c-0.663-0.009-1.32 0.113-1.935 0.36s-1.174 0.614-1.646 1.079-0.847 1.020-1.102 1.631c-0.256 0.611-0.387 1.267-0.387 1.93s0.132 1.319 0.387 1.93c0.256 0.611 0.63 1.165 1.102 1.631s1.031 0.832 1.646 1.079c0.615 0.247 1.272 0.369 1.935 0.36 1.326 0 2.598-0.527 3.535-1.464s1.465-2.209 1.465-3.536c0-1.326-0.527-2.598-1.465-3.535s-2.209-1.463-3.535-1.463zM15.334 12.335c0.398-0.008 0.794 0.065 1.165 0.212s0.708 0.367 0.992 0.646c0.284 0.279 0.511 0.612 0.665 0.98s0.234 0.762 0.234 1.161c0 0.399-0.079 0.793-0.233 1.161s-0.38 0.701-0.664 0.98c-0.284 0.279-0.621 0.499-0.992 0.647s-0.766 0.22-1.165 0.213c-0.796 0-1.559-0.316-2.121-0.879s-0.879-1.326-0.879-2.121c0-0.796 0.316-1.559 0.879-2.121s1.326-0.879 2.121-0.879l-0.001 0.001zM20.584 8.835c-0.323 0.013-0.628 0.15-0.851 0.383s-0.349 0.543-0.349 0.866c0 0.323 0.125 0.633 0.349 0.866s0.529 0.37 0.851 0.383c0.331 0 0.649-0.132 0.884-0.366s0.366-0.552 0.366-0.884c0-0.332-0.132-0.649-0.366-0.884s-0.552-0.366-0.884-0.366v0.002z"></path>
</symbol>
<symbol id="icon-linkedin" viewBox="0 0 32 32">
<path d="M6.642 3.322c-0 0.881-0.351 1.725-0.974 2.348s-1.468 0.972-2.349 0.971c-0.881-0-1.725-0.351-2.348-0.974s-0.972-1.468-0.972-2.349c0.001-0.881 0.351-1.725 0.974-2.348s1.468-0.972 2.349-0.972c0.881 0.001 1.725 0.351 2.348 0.974s0.972 1.468 0.971 2.349zM6.742 9.101h-6.642v20.789h6.642v-20.789zM17.236 9.101h-6.609v20.789h6.542v-10.909c0-6.077 7.92-6.642 7.92 0v10.909h6.559v-13.168c0-10.245-11.723-9.863-14.479-4.832l0.066-2.79z"></path>
</symbol>
<symbol id="icon-magnifying-glass" viewBox="0 0 32 32">
<path d="M19.93 22.052l5.51 5.508c0.137 0.148 0.303 0.266 0.487 0.348s0.383 0.126 0.584 0.129c0.201 0.003 0.401-0.033 0.588-0.109s0.356-0.188 0.499-0.33c0.142-0.143 0.255-0.312 0.33-0.498s0.113-0.387 0.109-0.589c-0.003-0.201-0.048-0.4-0.13-0.584s-0.2-0.349-0.348-0.487l-5.51-5.508c1.496-2.031 2.169-4.551 1.885-7.058s-1.504-4.812-3.417-6.456c-1.912-1.644-4.375-2.506-6.896-2.411s-4.912 1.139-6.695 2.922c-1.783 1.783-2.827 4.175-2.922 6.695s0.766 4.984 2.41 6.896c1.644 1.912 3.95 3.133 6.456 3.416s5.027-0.389 7.057-1.885zM21 14c0 1.857-0.738 3.637-2.050 4.95s-3.093 2.050-4.95 2.050-3.637-0.738-4.95-2.050c-1.313-1.312-2.050-3.093-2.050-4.95s0.738-3.637 2.050-4.95c1.313-1.313 3.093-2.050 4.95-2.050s3.637 0.737 4.95 2.050c1.313 1.313 2.050 3.093 2.050 4.95z"></path>
</symbol>
<symbol id="icon-material-symbols_call-outline" viewBox="0 0 32 32">
<path d="M5.5 6h5.5l0.5 3.5-3 4-2.5-3-0.5-4.5z"></path>
<path d="M18 24l4-3.5 5 1-0.5 5.5-5-1-3.5-2z"></path>
<path d="M26.6 28c-2.867 0-5.661-0.639-8.383-1.918s-5.133-2.967-7.233-5.066c-2.1-2.1-3.789-4.511-5.067-7.233s-1.917-5.517-1.917-8.383c0-0.4 0.133-0.733 0.4-1s0.6-0.4 1-0.4h5.4c0.311 0 0.589 0.1 0.833 0.3s0.389 0.456 0.433 0.767l0.867 4.666c0.044 0.311 0.039 0.595-0.017 0.851s-0.184 0.483-0.383 0.683l-3.233 3.267c0.933 1.6 2.106 3.1 3.517 4.5s2.961 2.611 4.649 3.633l3.133-3.133c0.2-0.2 0.461-0.35 0.784-0.451s0.639-0.128 0.949-0.082l4.6 0.933c0.311 0.067 0.567 0.217 0.767 0.451s0.3 0.506 0.3 0.816v5.4c0 0.4-0.133 0.733-0.4 1s-0.6 0.4-1 0.4zM8.033 12l2.2-2.2-0.567-3.133h-2.967c0.111 0.911 0.267 1.811 0.467 2.7s0.489 1.767 0.867 2.633zM19.967 23.933c0.867 0.378 1.75 0.678 2.651 0.9s1.806 0.367 2.716 0.433v-2.933l-3.133-0.633-2.233 2.233z"></path>
<path d="M12.067 5.067c-0.044-0.312-0.189-0.567-0.433-0.767s-0.522-0.3-0.833-0.3h-5.4q-0.36 0-0.648 0.144-0.192 0.096-0.352 0.256t-0.256 0.352q-0.144 0.288-0.144 0.648 0 1.066 0.118 2.118 0.358 3.193 1.799 6.265 1.16 2.472 2.772 4.602 1.051 1.389 2.295 2.632 1.246 1.245 2.637 2.298 2.128 1.609 4.596 2.768 3.058 1.436 6.238 1.797v0q1.066 0.121 2.145 0.121c0.4 0 0.733-0.133 1-0.4s0.4-0.6 0.4-1v-5.4c0-0.311-0.1-0.582-0.3-0.816s-0.456-0.384-0.767-0.451l-4.6-0.933c-0.31-0.045-0.627-0.018-0.949 0.082s-0.584 0.251-0.784 0.451l-3.133 3.133q-0.93-0.563-1.803-1.202-1.506-1.102-2.846-2.431-2.117-2.1-3.517-4.5l3.233-3.267c0.199-0.199 0.327-0.427 0.383-0.683s0.062-0.54 0.017-0.851l-0.867-4.667zM12.637 9.782q0.058 0.41-0.014 0.738-0.014 0.065-0.036 0.127-0.080 0.223-0.265 0.408l-3.396 3.431 0.116 0.199q1.42 2.434 3.565 4.562 1.353 1.342 2.872 2.455 0.888 0.65 1.833 1.223l0.201 0.122 3.3-3.299q0.248-0.248 0.661-0.377 0.389-0.121 0.759-0.079 0.025 0.002 0.050 0.006l4.592 0.932q0.212 0.045 0.381 0.157 0.12 0.080 0.218 0.194 0.109 0.127 0.166 0.274 0.062 0.161 0.062 0.347v5.4q0 0.298-0.123 0.532-0.073 0.14-0.19 0.256t-0.256 0.19q-0.234 0.123-0.532 0.123-1.047 0-2.080-0.116-3.147-0.352-6.175-1.773-2.444-1.148-4.551-2.743-1.371-1.038-2.598-2.265-1.225-1.225-2.261-2.592-1.597-2.108-2.746-4.556-1.427-3.041-1.776-6.202-0.113-1.021-0.113-2.054 0-0.298 0.122-0.532 0.073-0.14 0.19-0.256t0.256-0.19q0.234-0.123 0.532-0.123h5.4q0.164 0 0.313 0.049 0.177 0.058 0.331 0.184 0.142 0.116 0.224 0.265 0.078 0.141 0.103 0.312l0.001 0.006 0.867 4.667zM7.934 12.523l2.622-2.623-0.028-0.154-0.611-3.38h-3.556l0.041 0.336q0.168 1.381 0.472 2.729 0.306 1.361 0.884 2.687l0.176 0.403zM10.233 9.8l-2.2 2.2q-0.065-0.149-0.126-0.298-0.475-1.155-0.74-2.335-0.267-1.187-0.428-2.4-0.020-0.15-0.038-0.3h2.967l0.567 3.133zM19.847 24.209q1.323 0.577 2.699 0.916t2.766 0.441l0.322 0.023v-3.502l-3.532-0.714-2.659 2.658 0.404 0.176zM25.033 25.242c-0.809-0.074-1.614-0.21-2.416-0.408-0.797-0.197-1.582-0.455-2.353-0.774-0.099-0.041-0.199-0.083-0.298-0.127l2.233-2.233 3.133 0.633v2.933c-0.1-0.007-0.2-0.016-0.3-0.025z"></path>
</symbol>
<symbol id="icon-ph_user-duotone" viewBox="0 0 32 32">
<path d="M24 12c0 1.582-0.469 3.129-1.348 4.444s-2.128 2.341-3.59 2.947c-1.462 0.605-3.070 0.764-4.622 0.455s-2.977-1.070-4.096-2.189c-1.119-1.119-1.881-2.544-2.189-4.096s-0.15-3.16 0.455-4.622c0.605-1.462 1.631-2.711 2.946-3.59s2.862-1.348 4.445-1.348c2.122 0 4.157 0.843 5.657 2.343s2.343 3.535 2.343 5.657z"></path>
<path d="M28.865 26.5c-1.904-3.291-4.838-5.651-8.261-6.77 1.693-1.008 3.009-2.544 3.745-4.373s0.851-3.848 0.328-5.748c-0.523-1.9-1.655-3.577-3.223-4.771s-3.484-1.842-5.455-1.842c-1.971 0-3.887 0.647-5.455 1.842s-2.7 2.871-3.223 4.771c-0.523 1.9-0.407 3.919 0.329 5.748s2.052 3.364 3.745 4.373c-3.424 1.118-6.357 3.477-8.261 6.77-0.070 0.114-0.116 0.241-0.136 0.373s-0.013 0.267 0.019 0.396c0.033 0.129 0.091 0.251 0.172 0.357s0.182 0.196 0.297 0.263c0.116 0.067 0.243 0.11 0.376 0.126s0.267 0.006 0.396-0.030c0.129-0.036 0.248-0.098 0.353-0.181s0.191-0.187 0.255-0.304c2.355-4.070 6.517-6.5 11.134-6.5s8.779 2.43 11.134 6.5c0.064 0.117 0.15 0.221 0.255 0.304s0.224 0.145 0.353 0.181c0.129 0.036 0.263 0.046 0.395 0.030s0.26-0.059 0.376-0.126c0.116-0.067 0.217-0.156 0.297-0.263s0.139-0.228 0.172-0.357c0.033-0.129 0.039-0.264 0.019-0.396s-0.066-0.259-0.136-0.373zM9 12c0-1.384 0.411-2.738 1.18-3.889s1.862-2.048 3.142-2.578c1.279-0.53 2.686-0.668 4.044-0.398s2.605 0.937 3.584 1.916 1.646 2.226 1.916 3.584c0.27 1.358 0.131 2.766-0.398 4.044s-1.427 2.373-2.578 3.142c-1.151 0.769-2.505 1.18-3.889 1.18-1.856-0.002-3.635-0.74-4.948-2.052s-2.050-3.092-2.052-4.948z"></path>
</symbol>
<symbol id="icon-phone" viewBox="0 0 32 32">
<path d="M31.555 26.609l-4.511 4.475c-0.666 0.684-1.549 0.914-2.408 0.916-3.802-0.114-7.396-1.982-10.346-3.899-4.843-3.524-9.287-7.892-12.076-13.172-1.070-2.214-2.325-5.038-2.205-7.509 0.011-0.93 0.261-1.842 0.916-2.442l4.512-4.509c0.937-0.797 1.843-0.521 2.442 0.406l3.63 6.883c0.382 0.815 0.163 1.689-0.407 2.271l-1.662 1.662c-0.103 0.14-0.168 0.3-0.17 0.474 0.637 2.467 2.568 4.741 4.274 6.306s3.539 3.686 5.919 4.187c0.294 0.082 0.655 0.111 0.865-0.085l1.934-1.966c0.667-0.505 1.629-0.752 2.341-0.339h0.034l6.547 3.865c0.961 0.602 1.061 1.766 0.373 2.475z"></path>
</symbol>
<symbol id="icon-scales" viewBox="0 0 32 32">
<path d="M7 11l4 10c0 2.209-2.5 3-4 3s-4-0.791-4-3l4-10zM25 7l-4 10c0 2.209 2.5 3 4 3s4-0.791 4-3l-4-10z"></path>
<path d="M29.929 16.625l-4-10c-0.088-0.22-0.252-0.402-0.461-0.513s-0.452-0.144-0.684-0.092l-7.784 1.73v-2.75c0-0.265-0.105-0.52-0.293-0.707s-0.442-0.293-0.707-0.293c-0.265 0-0.52 0.105-0.707 0.293s-0.293 0.442-0.293 0.707v3.198l-8.217 1.826c-0.158 0.035-0.306 0.109-0.43 0.213s-0.221 0.238-0.281 0.388v0.008l-4 9.992c-0.048 0.12-0.072 0.247-0.071 0.375 0 2.914 3.067 4 5 4s5-1.086 5-4c0.001-0.128-0.023-0.256-0.071-0.375l-3.564-8.904 6.635-1.471v15.75h-2c-0.265 0-0.52 0.105-0.707 0.293s-0.293 0.442-0.293 0.707 0.105 0.52 0.293 0.707c0.188 0.188 0.442 0.293 0.707 0.293h6c0.265 0 0.52-0.105 0.707-0.293s0.293-0.442 0.293-0.707-0.105-0.52-0.293-0.707c-0.188-0.188-0.442-0.293-0.707-0.293h-2v-16.198l6.375-1.415-3.304 8.237c-0.048 0.12-0.072 0.247-0.071 0.375 0 2.914 3.068 4 5 4s5-1.086 5-4c0.001-0.128-0.023-0.256-0.071-0.375zM7 23c-0.941 0-2.845-0.452-2.991-1.83l2.991-7.478 2.991 7.478c-0.146 1.378-2.050 1.83-2.991 1.83zM25 19c-0.941 0-2.845-0.452-2.991-1.83l2.991-7.478 2.991 7.478c-0.146 1.378-2.050 1.83-2.991 1.83z"></path>
</symbol>
<symbol id="icon-solar_cart-bold-duotone" viewBox="0 0 32 32">
<path d="M13.364 2.667c-0.619 0-1.212 0.246-1.65 0.684s-0.683 1.031-0.683 1.65c0 0.619 0.246 1.212 0.683 1.65s1.031 0.683 1.65 0.683h5.333c0.619 0 1.212-0.246 1.65-0.683s0.683-1.031 0.683-1.65c0-0.619-0.246-1.212-0.683-1.65s-1.031-0.684-1.65-0.684h-5.333zM5.183 21.606c-1.144-4.576-1.716-6.863-0.516-8.401s3.56-1.539 8.277-1.539h6.173c4.717 0 7.075 0 8.276 1.539 1.201 1.538 0.629 3.827-0.515 8.401-0.728 2.911-1.091 4.365-2.176 5.213-1.085 0.847-2.585 0.847-5.585 0.847h-6.173c-3 0-4.5 0-5.585-0.847-1.085-0.848-1.449-2.303-2.176-5.213z"></path>
<path d="M20.805 6.003c0.149-0.313 0.227-0.654 0.228-1s-0.076-0.688-0.225-1.001c0.911 0.007 1.621 0.048 2.255 0.296 0.758 0.296 1.416 0.8 1.901 1.454 0.489 0.659 0.72 1.502 1.036 2.665l0.061 0.227 0.684 3.951c-0.545-0.376-1.248-0.6-2.157-0.733l-0.48-2.783c-0.38-1.387-0.517-1.823-0.749-2.135-0.261-0.352-0.616-0.623-1.024-0.783-0.293-0.115-0.647-0.146-1.529-0.157zM11.255 4.001c-0.149 0.313-0.226 0.655-0.225 1.001s0.078 0.688 0.228 1c-0.883 0.009-1.236 0.042-1.529 0.157-0.408 0.16-0.763 0.431-1.024 0.783-0.232 0.312-0.369 0.748-0.748 2.133l-0.481 2.785c-0.909 0.133-1.612 0.356-2.157 0.731l0.684-3.95 0.061-0.227c0.316-1.163 0.547-2.006 1.036-2.667 0.485-0.652 1.144-1.155 1.901-1.451 0.633-0.248 1.344-0.29 2.255-0.296v-0.001z"></path>
</symbol>
<symbol id="icon-twitter" viewBox="0 0 32 32">
<path d="M29.617 7.541c-1.018 0.45-2.097 0.746-3.203 0.877 1.164-0.697 2.035-1.793 2.451-3.085-1.093 0.651-2.292 1.107-3.54 1.353-0.839-0.898-1.951-1.493-3.164-1.694s-2.457 0.005-3.541 0.585c-1.084 0.58-1.945 1.502-2.451 2.622s-0.627 2.376-0.345 3.572c-2.218-0.111-4.387-0.687-6.367-1.691s-3.728-2.413-5.128-4.136c-0.496 0.851-0.756 1.819-0.755 2.804 0 1.933 0.985 3.641 2.48 4.641-0.886-0.028-1.751-0.267-2.525-0.697v0.068c0 1.288 0.445 2.536 1.261 3.533s1.95 1.681 3.213 1.936c-0.822 0.223-1.684 0.256-2.52 0.096 0.356 1.108 1.050 2.078 1.984 2.773s2.063 1.079 3.227 1.101c-1.157 0.908-2.482 1.58-3.898 1.977s-2.897 0.509-4.358 0.333c2.549 1.639 5.516 2.509 8.547 2.507 10.259 0 15.867-8.497 15.867-15.867 0-0.24-0.005-0.483-0.016-0.721 1.091-0.789 2.033-1.766 2.782-2.886l0.001-0.001z"></path>
</symbol>
<symbol id="icon-youtube" viewBox="0 0 32 32">
<path d="M16.102 3.998h0.178c1.644 0.006 9.974 0.066 12.22 0.67 0.679 0.184 1.298 0.544 1.794 1.042s0.854 1.118 1.036 1.798c0.202 0.76 0.344 1.766 0.44 2.804l0.020 0.208 0.044 0.52 0.016 0.208c0.13 1.828 0.146 3.54 0.148 3.914v0.15c-0.002 0.388-0.020 2.216-0.164 4.12l-0.016 0.21-0.018 0.208c-0.1 1.144-0.248 2.28-0.47 3.116-0.181 0.68-0.538 1.3-1.035 1.799s-1.116 0.858-1.795 1.042c-2.32 0.624-11.138 0.668-12.36 0.67h-0.284c-0.618 0-3.174-0.012-5.854-0.104l-0.34-0.012-0.174-0.008-0.684-0.028c-2.22-0.098-4.334-0.256-5.308-0.52-0.679-0.184-1.298-0.542-1.795-1.041s-0.854-1.118-1.035-1.797c-0.222-0.834-0.37-1.972-0.47-3.116l-0.016-0.21-0.016-0.208c-0.099-1.355-0.154-2.713-0.164-4.072v-0.246c0.004-0.43 0.020-1.916 0.128-3.556l0.014-0.206 0.006-0.104 0.016-0.208 0.044-0.52 0.020-0.208c0.096-1.038 0.238-2.046 0.44-2.804 0.181-0.68 0.538-1.3 1.035-1.799s1.116-0.858 1.795-1.042c0.974-0.26 3.088-0.42 5.308-0.52l0.34-0.014 0.516-0.018 0.342-0.014c1.904-0.061 3.808-0.095 5.712-0.102l0.386-0.002zM12.8 10.418v9.636l8.314-4.816-8.314-4.82z"></path>
</symbol>
<symbol id="icon-Acana" viewBox="0 0 84 32">
<path d="M0 0h84.19v32h-84.19v-32z"></path>
</symbol>
</defs>
</svg>
